<svg preserveAspectRatio="none" width="100%" height="100%" overflow="visible" style="display: block;" viewBox="0 0 141.175 30.0001" fill="none" xmlns="http://www.w3.org/2000/svg">
<g id="Group">
<path id="Vector" d="M51.4683 0.462891H54.1159V24.1409H51.4683V22.0525H51.4024C50.4089 23.3441 48.8201 24.6026 46.1043 24.6026C41.866 24.6026 38.4883 21.2581 38.4883 15.6949C38.4883 10.1318 41.866 6.78725 46.1043 6.78725C48.8201 6.78725 50.4089 7.97947 51.4024 9.43685H51.4683V0.462891ZM51.4683 15.6949C51.4683 11.7218 49.5154 9.10533 46.3695 9.10533C42.8924 9.10533 41.1367 12.3836 41.1367 15.6949C41.1367 19.0063 42.8924 22.2845 46.3695 22.2845C49.5154 22.2845 51.4683 19.6681 51.4683 15.6949Z" fill="var(--fill-0, white)"/>
<path id="Vector_2" d="M64.0013 9.10543C60.789 9.10543 59.7284 10.0325 59.5637 12.4831H56.9144C57.0803 9.23808 59.0996 6.78735 64.0013 6.78735C67.213 6.78735 70.0936 8.04586 70.0936 12.1149V20.3277C70.0936 21.6524 70.33 22.3805 72.0135 22.1816V24.0368C71.5159 24.221 70.9882 24.3106 70.4583 24.3008C68.8683 24.3008 67.9077 23.8711 67.4448 22.0159H67.3742C66.3142 23.6058 64.4272 24.5992 61.6461 24.5992C58.2355 24.5992 56.082 22.6457 56.082 19.7972C56.082 15.9567 58.929 14.9634 63.3037 14.1358C66.1524 13.6055 67.4471 13.2408 67.4471 11.5526C67.4448 10.2314 66.716 9.10543 64.0013 9.10543ZM67.4448 17.6153V14.8012C66.9477 15.2973 65.3248 15.7613 63.5384 16.126C60.259 16.8209 58.7314 17.6485 58.7314 19.6682C58.7314 21.3256 59.7249 22.2846 61.9113 22.2846C65.0607 22.2846 67.4448 20.8604 67.4448 17.6153Z" fill="var(--fill-0, white)"/>
<path id="Vector_3" d="M85.3706 7.25146H88.0205V23.2116C88.0205 27.7104 85.1729 30.0001 80.5365 30.0001C75.9007 30.0001 73.1514 27.5494 72.8878 24.6725H75.5443C75.876 26.394 77.2672 27.6856 80.4124 27.6856C83.5582 27.6856 85.3788 26.3276 85.3788 23.1868V20.6295H85.3129C84.3194 22.0857 82.7306 23.2779 79.9483 23.2779C75.7766 23.2779 72.3984 20.5964 72.3984 15.0332C72.3984 9.47007 75.7766 6.78735 79.9483 6.78735C82.7306 6.78735 84.3194 8.04586 85.3129 9.33749H85.3788L85.3706 7.25146ZM85.3706 15.0332C85.3706 11.0589 83.4171 9.10543 80.2718 9.10543C76.7942 9.10543 75.0402 11.7219 75.0402 15.0332C75.0402 18.3446 76.7942 20.9598 80.2718 20.9598C83.4218 20.9598 85.3706 19.0064 85.3706 15.0332Z" fill="var(--fill-0, white)"/>
<path id="Vector_4" d="M104.301 19.5037C104.301 22.5818 101.487 24.6027 97.6448 24.6027C92.4796 24.6027 90.0956 22.152 89.9297 18.5103H92.5791C92.7438 20.3975 93.4079 22.2846 97.6448 22.2846C100.525 22.2846 101.651 20.7941 101.651 19.6682C101.651 17.2187 99.4325 17.0861 97.0166 16.4894C94.4331 15.8608 90.5914 15.5624 90.5914 11.5893C90.5914 8.93973 92.9426 6.78735 96.9172 6.78735C101.122 6.78735 103.374 9.17173 103.638 12.0853H100.989C100.724 10.7949 100.096 9.10543 96.9172 9.10543C94.5325 9.10543 93.2467 10.0656 93.2467 11.3904C93.2467 13.3769 95.5319 13.5427 97.8831 14.1062C100.89 14.8343 104.301 15.3304 104.301 19.5037Z" fill="var(--fill-0, white)"/>
<path id="Vector_5" d="M113.256 9.5686H109.941V19.7336C109.941 21.6551 111.006 21.983 113.256 21.8208V24.1401C112.603 24.2767 111.937 24.3434 111.269 24.339C109.02 24.339 107.295 23.4451 107.295 20.0012V9.57095H104.809V7.25052H107.295V1.62109H109.944V7.25052H113.259L113.256 9.5686Z" fill="var(--fill-0, white)"/>
<path id="Vector_6" d="M127.334 18.9401H129.983C129.121 22.0857 126.705 24.6027 122.5 24.6027C117.366 24.6027 114.254 20.993 114.254 15.695C114.254 10.0656 117.433 6.78735 122.367 6.78735C127.665 6.78735 130.248 10.3971 130.248 16.39H116.903C116.903 19.4374 118.724 22.2846 122.4 22.2846C125.778 22.2846 127.035 20.0991 127.334 18.9401ZM116.903 14.0778H127.599C127.599 11.362 125.546 9.10543 122.367 9.10543C119.189 9.10543 116.903 11.3549 116.903 14.0778Z" fill="var(--fill-0, white)"/>
<path id="Vector_7" d="M141.175 6.88709V9.53669H141.109C137.439 8.94476 134.884 11.5233 134.884 15.133V24.1413H132.234V7.25173H134.884V10.5963H134.95C135.844 8.37765 137.2 6.78768 139.62 6.78768C140.14 6.78227 140.66 6.8155 141.175 6.88709Z" fill="var(--fill-0, white)"/>
<path id="Vector_8" d="M9.99037 28.7841C9.9909 28.9517 10.0259 29.1174 10.0933 29.2709C10.1607 29.4244 10.259 29.5623 10.382 29.6761C10.5051 29.7898 10.6502 29.877 10.8085 29.9321C10.9667 29.9873 11.1346 30.0091 11.3016 29.9964C17.6519 29.5418 23.6496 25.0477 25.5643 18.0284C25.665 17.6247 25.9679 17.4222 26.3714 17.4222C26.5783 17.4306 26.7736 17.5201 26.9149 17.6715C27.0563 17.8228 27.1323 18.0238 27.1265 18.2309C27.1265 19.796 25.1146 23.8864 22.2377 26.2601C22.0911 26.3834 21.9742 26.5383 21.8958 26.7131C21.8172 26.888 21.7792 27.0783 21.7845 27.2699C21.7874 27.4257 21.8211 27.5794 21.8835 27.7221C21.9459 27.8649 22.0358 27.9939 22.1482 28.1018C22.2606 28.2097 22.3931 28.2943 22.5382 28.3509C22.6834 28.4075 22.8383 28.4347 22.994 28.4313C23.246 28.4313 23.6495 28.2798 24.1537 27.8252C26.1656 26.0067 29.9999 20.9065 29.9999 15.3007C29.9999 7.08206 23.646 0 14.7786 0C6.86613 0 0.0117188 6.46407 0.0117188 13.9381C0.0117188 18.8867 3.94306 22.6231 9.13356 22.6231C13.1158 22.6231 16.7951 19.796 17.8034 15.9068C17.904 15.5031 18.2058 15.3007 18.6093 15.3007C18.8163 15.309 19.0117 15.3986 19.1532 15.5499C19.2947 15.7012 19.371 15.9021 19.3656 16.1093C19.3656 17.8769 16.0389 24.0414 9.28509 24.0414C7.67206 24.0414 5.65668 23.5868 4.24482 22.7782C4.05583 22.6866 3.84995 22.635 3.64013 22.6267C3.47942 22.6205 3.31919 22.6477 3.16949 22.7064C3.01978 22.7652 2.8839 22.8543 2.77032 22.9682C2.65673 23.082 2.56791 23.2182 2.50944 23.368C2.45097 23.5179 2.42415 23.6782 2.43062 23.839C2.43715 24.0449 2.49615 24.2457 2.60197 24.4225C2.70779 24.5992 2.85696 24.7459 3.03537 24.8489C4.90046 25.9144 7.11818 26.4648 9.38568 26.4648C15.0306 26.4648 20.1715 22.6267 21.6839 16.9712C21.7845 16.5675 22.0875 16.365 22.4898 16.365C22.6968 16.3734 22.8922 16.4628 23.0337 16.6142C23.1752 16.7655 23.2515 16.9665 23.246 17.1736C23.246 19.4964 19.1135 26.9704 11.1502 27.5765C10.8421 27.5994 10.5532 27.7353 10.3392 27.9582C10.1251 28.1811 10.0009 28.4752 9.99037 28.7841Z" fill="var(--fill-0, white)"/>
<path id="Vector_9" d="M17.8833 9.44443C18.9702 9.43637 20.0372 9.73683 20.9602 10.3111C21.0535 9.8003 21.1049 9.28284 21.114 8.76373C21.114 6.3663 19.2868 4.21875 17.062 4.21875C15.3318 4.21875 14.2501 5.65243 14.2501 7.42352C14.2419 8.38033 14.578 9.30814 15.1969 10.0376C16.0355 9.6376 16.9543 9.43472 17.8833 9.44443Z" fill="var(--fill-0, white)"/>
<path id="Vector_10" d="M23.0959 18.129C23.4047 17.0729 23.5408 16.3401 23.5408 15.8642C23.5314 15.6587 23.4433 15.4646 23.2948 15.3222C23.1464 15.1798 22.9489 15.1001 22.7432 15.0994C22.5516 15.103 22.3667 15.1705 22.2179 15.2912C22.069 15.412 21.9649 15.5791 21.9219 15.7659C21.8379 16.1128 21.658 17.0528 21.4805 17.6495C21.5538 17.4261 21.6209 17.1992 21.6816 16.9687C21.7822 16.5639 22.0852 16.3626 22.4876 16.3626C22.6944 16.3706 22.8898 16.4599 23.0313 16.611C23.1729 16.7621 23.2492 16.963 23.2438 17.17C23.2343 17.4954 23.1821 17.8183 23.0887 18.1301L23.0959 18.129Z" fill="var(--fill-0, #312C2C)"/>
<path id="Vector_11" d="M27.3776 17.0265C27.3679 16.8213 27.2799 16.6276 27.1318 16.4853C26.9836 16.343 26.7865 16.263 26.5812 16.2617C26.3898 16.2655 26.2051 16.3332 26.0565 16.4539C25.908 16.5747 25.804 16.7416 25.761 16.9282C25.6758 17.2834 25.4924 18.2376 25.3125 18.8331H25.3208C25.4084 18.5679 25.49 18.2992 25.5575 18.0257C25.6581 17.6208 25.961 17.4195 26.3646 17.4195C26.5714 17.4275 26.7666 17.5168 26.908 17.668C27.0494 17.8192 27.1254 18.02 27.1196 18.2269C27.1138 18.4783 27.0793 18.7282 27.0166 18.9716C27.2675 18.0908 27.3776 17.4538 27.3776 17.0265Z" fill="var(--fill-0, #312C2C)"/>
<path id="Vector_12" d="M17.8801 9.44354C18.4203 9.44249 18.9581 9.51454 19.4789 9.65784C19.7523 9.28484 19.889 8.82897 19.8658 8.36692C19.8427 7.90492 19.6612 7.46499 19.3518 7.12117C19.0424 6.77735 18.6241 6.55065 18.1673 6.47924C17.7104 6.40777 17.2429 6.49595 16.8434 6.72889L17.6718 8.09274L16.1204 7.42146C15.9102 7.76069 15.8048 8.15445 15.8174 8.55332C15.8301 8.95226 15.9601 9.33855 16.1914 9.66378C16.7419 9.51531 17.3099 9.44125 17.8801 9.44354Z" fill="var(--fill-0, #312C2C)"/>
<path id="Vector_13" d="M5.92954 18.2212C6.58312 18.2212 7.11294 17.6912 7.11294 17.0374C7.11294 16.3835 6.58312 15.8535 5.92954 15.8535C5.27591 15.8535 4.74609 16.3835 4.74609 17.0374C4.74609 17.6912 5.27591 18.2212 5.92954 18.2212Z" fill="var(--fill-0, #312C2C)"/>
<path id="Vector_14" d="M5.92954 13.485C6.58312 13.485 7.11294 12.955 7.11294 12.3011C7.11294 11.6473 6.58312 11.1172 5.92954 11.1172C5.27591 11.1172 4.74609 11.6473 4.74609 12.3011C4.74609 12.955 5.27591 13.485 5.92954 13.485Z" fill="var(--fill-0, #312C2C)"/>
<path id="Vector_15" d="M3.56236 15.8522C4.21593 15.8522 4.74581 15.3222 4.74581 14.6683C4.74581 14.0145 4.21593 13.4844 3.56236 13.4844C2.90878 13.4844 2.37891 14.0145 2.37891 14.6683C2.37891 15.3222 2.90878 15.8522 3.56236 15.8522Z" fill="var(--fill-0, #312C2C)"/>
<path id="Vector_16" d="M8.88755 22.621H9.12426C13.1065 22.621 16.7858 19.7939 17.7941 15.9048C17.8947 15.501 18.1965 15.2986 18.6 15.2986C18.807 15.3069 19.0024 15.3964 19.1439 15.5478C19.2854 15.6991 19.3617 15.9 19.3562 16.1072C19.3381 16.5204 19.2447 16.9269 19.0805 17.3065C19.109 17.2624 19.134 17.2161 19.155 17.168C19.4545 16.4833 19.6092 15.744 19.6095 14.9967C19.6095 13.8353 18.8024 13.0776 17.6438 13.0776C15.6237 13.0776 15.2189 14.8416 14.3669 16.7276C13.4828 18.6857 11.8592 20.8037 7.76452 20.8037C3.51006 20.8037 -0.861514 17.8238 0.204762 11.7646C0.217761 11.6889 0.228407 11.6214 0.236701 11.5586C0.0804687 12.3415 0.00117645 13.1377 0 13.9359C0.0118233 18.8136 3.82129 22.5073 8.88755 22.621Z" fill="var(--fill-0, #312C2C)"/>
</g>
</svg>
