<svg preserveAspectRatio="none" width="100%" height="100%" overflow="visible" style="display: block;" viewBox="0 0 138.536 29.6839" fill="none" xmlns="http://www.w3.org/2000/svg">
<g id="Group">
<path id="Vector" fill-rule="evenodd" clip-rule="evenodd" d="M11.2896 0H22.943L28.6363 10.0308L17.4786 29.6213H5.82321L0 19.4648L11.2896 0ZM11.7663 2.53195L1.94244 19.4697L6.30824 27.0842L16.0216 10.0294L11.7663 2.53195ZM17.4786 10.8715L7.75808 27.9386H16.5004L26.221 10.8715H17.4786ZM26.2234 9.18878H17.4794L13.2192 1.68271H21.9632L26.2234 9.18878Z" fill="var(--fill-0, white)"/>
<path id="Vector_2" fill-rule="evenodd" clip-rule="evenodd" d="M55.4468 19.5916L49.6199 29.6839L38.0865 29.5989L26.6992 10.1407L32.5271 0.046875L44.2346 0.0821809L55.4468 19.5916ZM53.0156 18.7386L43.2589 1.76197L34.4818 1.73548L44.3952 18.675L53.0156 18.7386ZM42.9373 19.5157L33.0169 2.56387L28.6456 10.135L38.5661 27.0869L42.9373 19.5157ZM40.0222 27.9302L44.3942 20.3578L53.0246 20.4214L48.6526 27.9938L40.0222 27.9302Z" fill="var(--fill-0, white)"/>
<path id="Vector_3" d="M68.457 6.0384H73.2434L77.955 18.4032L82.7164 6.0384H87.4529V23.6881H84.4614V9.02988H84.4116L79.0519 23.6881H76.8581L71.4984 9.02988H71.4485V23.6881H68.457V6.0384ZM90.5887 17.7051C90.5887 16.7578 90.7548 15.9019 91.0873 15.1374C91.4364 14.3564 91.9015 13.6915 92.4833 13.1431C93.0648 12.5947 93.7547 12.1709 94.5525 11.8718C95.3502 11.5726 96.1977 11.423 97.0952 11.423C97.9923 11.423 98.8401 11.5726 99.6375 11.8718C100.436 12.1709 101.125 12.5947 101.707 13.1431C102.288 13.6915 102.746 14.3564 103.078 15.1374C103.427 15.9019 103.601 16.7578 103.601 17.7051C103.601 18.6525 103.427 19.5167 103.078 20.2977C102.746 21.0622 102.288 21.7188 101.707 22.2672C101.125 22.8156 100.436 23.2394 99.6375 23.5385C98.8401 23.8376 97.9923 23.9872 97.0952 23.9872C96.1977 23.9872 95.3502 23.8376 94.5525 23.5385C93.7547 23.2394 93.0648 22.8156 92.4833 22.2672C91.9015 21.7188 91.4364 21.0622 91.0873 20.2977C90.7548 19.5167 90.5887 18.6525 90.5887 17.7051ZM93.5802 17.7051C93.5802 18.1704 93.655 18.6192 93.8046 19.0513C93.9707 19.4834 94.2034 19.8656 94.5025 20.198C94.8182 20.5305 95.1922 20.7963 95.6244 20.9958C96.0563 21.1952 96.5468 21.2949 97.0952 21.2949C97.6439 21.2949 98.1336 21.1952 98.5662 20.9958C98.9978 20.7963 99.3636 20.5305 99.6626 20.198C99.9781 19.8656 100.211 19.4834 100.361 19.0513C100.527 18.6192 100.61 18.1704 100.61 17.7051C100.61 17.2398 100.527 16.7911 100.361 16.359C100.211 15.9268 99.9781 15.5447 99.6626 15.2122C99.3636 14.8798 98.9978 14.614 98.5662 14.4145C98.1336 14.2151 97.6439 14.1153 97.0952 14.1153C96.5468 14.1153 96.0563 14.2151 95.6244 14.4145C95.1922 14.614 94.8182 14.8798 94.5025 15.2122C94.2034 15.5447 93.9707 15.9268 93.8046 16.359C93.655 16.7911 93.5802 17.2398 93.5802 17.7051ZM115.875 21.8932H115.826C115.393 22.6245 114.812 23.1562 114.081 23.4887C113.349 23.8211 112.56 23.9872 111.712 23.9872C110.782 23.9872 109.951 23.8294 109.219 23.5136C108.505 23.1812 107.889 22.7325 107.375 22.1674C106.86 21.6023 106.469 20.9376 106.203 20.1731C105.937 19.4087 105.804 18.586 105.804 17.7051C105.804 16.8243 105.945 16.0016 106.228 15.2371C106.51 14.4727 106.901 13.8079 107.4 13.2429C107.915 12.6778 108.529 12.2374 109.244 11.9216C109.958 11.5892 110.74 11.423 111.588 11.423C112.152 11.423 112.652 11.4812 113.083 11.5975C113.515 11.7139 113.898 11.8635 114.23 12.0463C114.562 12.2291 114.845 12.4285 115.078 12.6445C115.31 12.844 115.502 13.0434 115.651 13.2429H115.726V4.8418H118.717V23.6881H115.875V21.8932ZM108.795 17.7051C108.795 18.1704 108.871 18.6192 109.02 19.0513C109.186 19.4834 109.418 19.8656 109.718 20.198C110.034 20.5305 110.407 20.7963 110.84 20.9958C111.272 21.1952 111.762 21.2949 112.311 21.2949C112.859 21.2949 113.349 21.1952 113.781 20.9958C114.214 20.7963 114.579 20.5305 114.878 20.198C115.194 19.8656 115.427 19.4834 115.576 19.0513C115.743 18.6192 115.826 18.1704 115.826 17.7051C115.826 17.2398 115.743 16.7911 115.576 16.359C115.427 15.9268 115.194 15.5447 114.878 15.2122C114.579 14.8798 114.214 14.614 113.781 14.4145C113.349 14.2151 112.859 14.1153 112.311 14.1153C111.762 14.1153 111.272 14.2151 110.84 14.4145C110.407 14.614 110.034 14.8798 109.718 15.2122C109.418 15.5447 109.186 15.9268 109.02 16.359C108.871 16.7911 108.795 17.2398 108.795 17.7051ZM129.583 22.0428H129.509C129.076 22.7241 128.528 23.2227 127.864 23.5385C127.199 23.8376 126.467 23.9872 125.67 23.9872C125.121 23.9872 124.581 23.9124 124.049 23.7629C123.534 23.6133 123.068 23.389 122.653 23.0899C122.255 22.7906 121.93 22.4167 121.681 21.968C121.432 21.5193 121.307 20.9958 121.307 20.3975C121.307 19.7493 121.423 19.2009 121.656 18.7521C121.889 18.2869 122.197 17.9046 122.578 17.6055C122.977 17.2897 123.434 17.0404 123.949 16.8576C124.465 16.6747 124.996 16.5418 125.545 16.4587C126.11 16.359 126.675 16.3008 127.24 16.2842C127.806 16.2509 128.337 16.2344 128.835 16.2344H129.583V15.9103C129.583 15.1624 129.326 14.6057 128.811 14.24C128.295 13.8578 127.639 13.6667 126.841 13.6667C126.21 13.6667 125.619 13.783 125.071 14.0156C124.523 14.2317 124.049 14.5309 123.65 14.9131L122.079 13.3426C122.744 12.6612 123.517 12.1709 124.398 11.8718C125.295 11.5726 126.217 11.423 127.165 11.423C128.013 11.423 128.728 11.5227 129.309 11.7222C129.891 11.905 130.373 12.1459 130.755 12.4451C131.137 12.7442 131.428 13.0933 131.627 13.4921C131.844 13.8743 131.993 14.2649 132.076 14.6638C132.176 15.0626 132.234 15.4532 132.25 15.8355C132.268 16.2011 132.276 16.5252 132.276 16.8077V23.6881H129.583V22.0428ZM129.409 18.3284H128.786C128.371 18.3284 127.905 18.345 127.389 18.3782C126.875 18.4115 126.384 18.4945 125.918 18.6275C125.47 18.7438 125.088 18.9266 124.772 19.1759C124.456 19.4087 124.298 19.741 124.298 20.1731C124.298 20.4557 124.357 20.6966 124.473 20.8961C124.606 21.0789 124.772 21.2367 124.971 21.3697C125.171 21.5027 125.395 21.6023 125.645 21.6688C125.894 21.7187 126.143 21.7436 126.393 21.7436C127.423 21.7436 128.179 21.5027 128.661 21.0207C129.159 20.5221 129.409 19.8491 129.409 19.0014V18.3284ZM135.545 4.8418H138.536V23.6881H135.545V4.8418Z" fill="var(--fill-0, white)"/>
</g>
</svg>
