<svg preserveAspectRatio="none" width="100%" height="100%" overflow="visible" style="display: block;" viewBox="0 0 53.0041 53.2116" fill="none" xmlns="http://www.w3.org/2000/svg">
<g id="Group 2327">
<path id="Vector" d="M22.2607 0.594727C27.2843 -0.227685 32.4391 0.428134 37.0967 2.48242C41.7539 4.53666 45.7132 7.901 48.4932 12.165C51.2732 16.4294 52.7536 21.4105 52.7539 26.501C52.7539 27.3036 52.7165 28.0978 52.6465 28.8926V28.8955C52.6264 29.1521 52.5554 29.4021 52.4375 29.6309C52.3194 29.8598 52.1566 30.0633 51.959 30.2285C51.7613 30.3938 51.5324 30.5181 51.2861 30.5938C51.0399 30.6694 50.7807 30.6947 50.5244 30.6689H50.5215C50.2647 30.646 50.0145 30.5728 49.7861 30.4531C49.5578 30.3335 49.3554 30.1697 49.1904 29.9717C49.0254 29.7735 48.9016 29.5442 48.8252 29.2979C48.7488 29.0516 48.7212 28.7928 48.7451 28.5361V28.5342C48.8031 27.8655 48.8369 27.187 48.8369 26.501C48.8367 22.1703 47.5778 17.9326 45.2129 14.3047C42.8479 10.6767 39.4789 7.81429 35.5166 6.06641C31.5542 4.31852 27.1685 3.76055 22.8945 4.45996C18.6209 5.15942 14.6427 7.08631 11.4443 10.0059C8.24579 12.9256 5.96511 16.7127 4.87988 20.9053C3.79472 25.0978 3.9518 29.5153 5.33203 33.6201C6.71226 37.7249 9.25562 41.3402 12.6533 44.0254C16.0512 46.7106 20.1569 48.35 24.4697 48.7441L24.7422 48.7695V48.7578C25.1624 48.8337 25.5494 49.0438 25.8408 49.3623C26.1918 49.746 26.3757 50.2539 26.3525 50.7734C26.3294 51.2928 26.1013 51.7819 25.7178 52.1328C25.3821 52.4399 24.9513 52.619 24.501 52.6436L24.3066 52.6445H24.1074C19.0419 52.1805 14.2201 50.2549 10.2285 47.1016C6.23422 43.946 3.24311 39.6968 1.62012 34.8721C-0.00282313 30.0474 -0.188055 24.8548 1.08691 19.9268C2.36197 14.9987 5.04252 10.5474 8.80176 7.11523C12.5611 3.68301 17.2372 1.41714 22.2607 0.594727Z" fill="var(--fill-0, black)" stroke="var(--stroke-0, white)" stroke-width="0.5"/>
<path id="Vector 11" d="M28.5806 43.1295L36.895 51.4438L51.4451 36.8937" stroke="var(--stroke-0, #267275)" stroke-width="2.5" stroke-linecap="round"/>
<path id="Vector 10" d="M27.0217 16.6275V27.5401L19.227 35.8544" stroke="var(--stroke-0, #267275)" stroke-width="2.5" stroke-linecap="round"/>
</g>
</svg>
