<svg preserveAspectRatio="none" width="100%" height="100%" overflow="visible" style="display: block;" viewBox="0 0 63.5776 56.1" fill="none" xmlns="http://www.w3.org/2000/svg">
<g id="Group">
<path id="Vector" d="M19.196 40.4508L15.8187 39.9352L14.9421 30.6539C14.6843 26.5289 11.1523 23.3836 7.02728 23.6414C2.90228 23.8992 -0.24303 27.4312 0.0147829 31.6078L0.942908 41.3273C1.12338 44.2664 3.00541 46.8188 5.73822 47.85C6.4601 48.2109 7.25931 48.3656 8.08431 48.3398L15.1742 48.675C15.896 48.7008 16.489 48.1594 16.5148 47.4633C16.5406 46.7672 15.9992 46.1484 15.3031 46.1227L8.13588 45.7875C8.08431 45.7875 8.05853 45.7875 8.00697 45.7875C7.59447 45.8133 7.20775 45.7359 6.84681 45.5555C6.79525 45.5297 6.74369 45.5039 6.69213 45.5039C4.86166 44.8336 3.59838 43.132 3.46947 41.1469L2.56713 31.4016C2.41244 28.6945 4.47494 26.3742 7.18197 26.1938C9.91478 26.0391 12.2093 28.1016 12.3898 30.8344L13.3179 40.5539C13.3179 40.7086 13.3179 40.8375 13.3179 40.9922C13.2921 41.6367 13.7562 42.1781 14.4007 42.2812L18.8093 42.9773C19.3507 43.0547 19.7374 43.5188 19.7374 44.0602V54.8109C19.7374 55.507 20.3046 56.1 21.0265 56.1C21.7226 56.1 22.3156 55.5328 22.3156 54.8109V44.0602C22.264 42.2555 20.9749 40.7344 19.196 40.4508Z" fill="var(--fill-0, black)"/>
<path id="Vector_2" d="M7.92963 20.7023C11.6163 20.7023 14.6328 17.6859 14.6328 13.9992C14.6328 10.3125 11.6163 7.29609 7.92963 7.29609C4.24291 7.29609 1.2265 10.3125 1.2265 13.9992C1.2265 17.6859 4.24291 20.7023 7.92963 20.7023ZM7.92963 9.84844C10.2242 9.84844 12.0804 11.7047 12.0804 13.9992C12.0804 16.2937 10.2242 18.15 7.92963 18.15C5.6351 18.15 3.77885 16.2937 3.77885 13.9992C3.77885 11.7047 5.66088 9.84844 7.92963 9.84844Z" fill="var(--fill-0, black)"/>
<path id="Vector_3" d="M56.5273 23.6414C52.4281 23.3836 48.8703 26.5289 48.6124 30.6023L47.7359 39.9352L44.3585 40.4508C42.5796 40.7344 41.2648 42.2555 41.2648 44.0602V54.8109C41.2648 55.507 41.832 56.1 42.5538 56.1C43.2757 56.1 43.8429 55.5328 43.8429 54.8109V44.0602C43.8429 43.5188 44.2296 43.0805 44.771 42.9773L49.1796 42.2812C49.8242 42.1781 50.2882 41.6367 50.2624 40.9922C50.2624 40.8375 50.2624 40.7086 50.2624 40.6055L51.1906 30.8086C51.3453 28.1016 53.6656 26.0391 56.3984 26.1938C59.1054 26.3484 61.1679 28.6945 61.0132 31.35L60.0851 41.1469C59.9562 43.0805 58.7187 44.782 56.8882 45.4523C56.8367 45.4781 56.7851 45.5039 56.7335 45.5039C56.3726 45.6844 55.9859 45.7617 55.5734 45.7359C55.5218 45.7359 55.4703 45.7359 55.4445 45.7359L48.2773 46.0711C47.5812 46.0969 47.014 46.7156 47.0656 47.4117C47.0913 48.1078 47.6843 48.675 48.4062 48.6234L55.496 48.2883C56.2952 48.3141 57.1203 48.1594 57.8421 47.7984C60.5749 46.7414 62.457 44.1891 62.6374 41.3016L63.5656 31.5047C63.7976 27.4313 60.6523 23.8734 56.5273 23.6414Z" fill="var(--fill-0, black)"/>
<path id="Vector_4" d="M55.6249 20.7023C59.3117 20.7023 62.3281 17.6859 62.3281 13.9992C62.3281 10.3125 59.3117 7.29609 55.6249 7.29609C51.9382 7.29609 48.9218 10.3125 48.9218 13.9992C48.9218 17.6859 51.9124 20.7023 55.6249 20.7023ZM55.6249 9.84844C57.9195 9.84844 59.7757 11.7047 59.7757 13.9992C59.7757 16.2937 57.9195 18.15 55.6249 18.15C53.3304 18.15 51.4742 16.2937 51.4742 13.9992C51.4742 11.7047 53.3304 9.84844 55.6249 9.84844Z" fill="var(--fill-0, black)"/>
<path id="Vector_5" d="M45.0031 17.5312V1.36641C45.0031 0.61875 44.3843 0 43.6367 0H19.9179C19.1703 0 18.5515 0.61875 18.5515 1.36641V17.5312C18.5515 18.2789 19.1703 18.8977 19.9179 18.8977H26.5437L30.8749 23.2289C31.1328 23.4867 31.4421 23.6156 31.7773 23.6156C32.1124 23.6156 32.4218 23.4867 32.6796 23.2289L37.0109 18.8977H43.6367C44.4101 18.8977 45.0031 18.2789 45.0031 17.5312ZM42.4507 16.3453H36.4695C36.1343 16.3453 35.7992 16.4742 35.5671 16.732L31.7773 20.5219L27.9874 16.7063C27.7554 16.4742 27.4203 16.3195 27.0851 16.3195H21.1038V2.57812H42.4507V16.3453Z" fill="var(--fill-0, #267275)"/>
</g>
</svg>
