<svg width="59" height="56" viewBox="0 0 59 56" fill="none" xmlns="http://www.w3.org/2000/svg">
<path d="M57.5964 52.3296H55.0329V21.2554C55.0329 20.4801 54.4043 19.8516 53.6292 19.8516H42.4383C41.663 19.8516 41.0344 20.48 41.0344 21.2554V52.3294H36.3813V30.5812C36.3813 29.8059 35.7528 29.1773 34.9777 29.1773H23.7865C23.0113 29.1773 22.3827 29.8057 22.3827 30.5812V52.3294H17.7294V39.9071C17.7294 39.1319 17.101 38.5035 16.3256 38.5035H5.13422C4.35897 38.5035 3.73038 39.1319 3.73038 39.9071V52.3294H1.40384C0.628584 52.3294 0 52.9578 0 53.733C0.000195821 54.5087 0.628584 55.1371 1.40384 55.1371H57.5962C58.3714 55.1371 59 54.5087 59 53.7332C59 52.958 58.3714 52.3296 57.5964 52.3296ZM14.9217 52.3296H6.53806V51.6799L11.7669 46.4511C12.3152 45.9028 12.3152 45.0141 11.7669 44.4658C11.2186 43.9175 10.3299 43.9175 9.78164 44.4658L6.53806 47.7094V41.311H14.9217V52.3296ZM33.5735 52.3296H26.1789L30.5619 47.9465C31.1102 47.3984 31.1102 46.5096 30.5619 45.9613C30.0138 45.413 29.125 45.413 28.5767 45.9613L25.1898 49.3482V42.3539L30.5619 36.9818C31.1102 36.4337 31.1102 35.5448 30.5619 34.9965C30.0138 34.4482 29.125 34.4482 28.5767 34.9965L25.1898 38.3834V31.985H33.5735V52.3296ZM52.2254 52.3296H47.6626L48.9744 51.0178C49.5225 50.4695 49.5225 49.5809 48.9746 49.0326C48.4265 48.4843 47.5376 48.4843 46.9893 49.0326L43.8419 52.18V44.8408L48.9746 39.7082C49.5227 39.1599 49.5227 38.2712 48.9746 37.7229C48.4263 37.1746 47.5376 37.1746 46.9891 37.7229L43.8419 40.8704V33.2351L48.9744 28.1027C49.5225 27.5544 49.5225 26.6657 48.9746 26.1174C48.4263 25.5691 47.5376 25.5693 46.9891 26.1174L43.8419 29.2649V22.6592H52.2254V52.3296Z" fill="black"/>
<path d="M58.0187 2.15332L52.3592 0.0856457C51.6308 -0.180475 50.825 0.194326 50.5591 0.922388C50.2929 1.65064 50.6675 2.45664 51.3958 2.72257L54.0578 3.69521L1.13019 30.2228C0.437181 30.5702 0.156961 31.4136 0.504347 32.1068C0.750494 32.5981 1.24592 32.8819 1.76015 32.8819C1.97163 32.8819 2.18625 32.8339 2.38814 32.7327L55.0651 6.33076L54.1369 8.87153C53.8708 9.59979 54.2456 10.4058 54.9736 10.6717C55.7019 10.938 56.5077 10.5632 56.7738 9.83497L58.9145 3.97523C59.1854 3.23405 58.7712 2.39104 58.0187 2.15332Z" fill="#267275"/>
</svg>
