<svg preserveAspectRatio="none" width="100%" height="100%" overflow="visible" style="display: block;" viewBox="0 0 59 35.2855" fill="none" xmlns="http://www.w3.org/2000/svg">
<g id="Group">
<path id="Vector" d="M57.5964 32.478H55.0329V1.40384C55.0329 0.628584 54.4043 0 53.6292 0H42.4383C41.663 0 41.0344 0.628388 41.0344 1.40384V32.4778H36.3813V10.7296C36.3813 9.95435 35.7527 9.32577 34.9777 9.32577H23.7865C23.0113 9.32577 22.3827 9.95416 22.3827 10.7296V32.4778H17.7294V20.0556C17.7294 19.2803 17.101 18.6519 16.3256 18.6519H5.13422C4.35897 18.6519 3.73038 19.2803 3.73038 20.0556V32.4778H1.40384C0.628584 32.4778 0 33.1062 0 33.8815C0.000195821 34.6571 0.628584 35.2855 1.40384 35.2855H57.5962C58.3714 35.2855 59 34.6571 59 33.8817C59 33.1064 58.3714 32.478 57.5964 32.478ZM14.9217 32.478H6.53806V31.8283L11.7669 26.5995C12.3152 26.0512 12.3152 25.1626 11.7669 24.6143C11.2186 24.066 10.3299 24.066 9.78164 24.6143L6.53806 27.8578V21.4594H14.9217V32.478ZM33.5735 32.478H26.1789L30.5619 28.095C31.1102 27.5469 31.1102 26.6581 30.5619 26.1098C30.0138 25.5615 29.125 25.5615 28.5767 26.1098L25.1898 29.4967V22.5023L30.5619 17.1302C31.1102 16.5821 31.1102 15.6933 30.5619 15.145C30.0138 14.5967 29.125 14.5967 28.5767 15.145L25.1898 18.5319V12.1334H33.5735V32.478ZM52.2254 32.478H47.6626L48.9744 31.1662C49.5225 30.6179 49.5225 29.7293 48.9746 29.181C48.4265 28.6327 47.5376 28.6327 46.9893 29.181L43.8419 32.3284V24.9893L48.9746 19.8566C49.5227 19.3083 49.5227 18.4197 48.9746 17.8714C48.4263 17.3231 47.5376 17.3231 46.9891 17.8714L43.8419 21.0188V13.3836L48.9744 8.2511C49.5225 7.7028 49.5225 6.81417 48.9746 6.26587C48.4263 5.71757 47.5376 5.71777 46.9891 6.26587L43.8419 9.4133V2.80768H52.2254V32.478Z" fill="var(--fill-0, black)"/>
</g>
</svg>
