<svg preserveAspectRatio="none" width="100%" height="100%" overflow="visible" style="display: block;" viewBox="0 0 58.6425 32.8819" fill="none" xmlns="http://www.w3.org/2000/svg">
<g id="Group">
<path id="Vector" d="M57.6634 2.15332L52.004 0.0856457C51.2756 -0.180475 50.4698 0.194326 50.2038 0.922388C49.9377 1.65064 50.3123 2.45664 51.0406 2.72257L53.7026 3.69521L0.774966 30.2228C0.0819563 30.5702 -0.198263 31.4136 0.149123 32.1068C0.395269 32.5981 0.890696 32.8819 1.40492 32.8819C1.61641 32.8819 1.83103 32.8339 2.03292 32.7327L54.7099 6.33076L53.7817 8.87153C53.5156 9.59979 53.8904 10.4058 54.6184 10.6717C55.3467 10.938 56.1525 10.5632 56.4186 9.83497L58.5593 3.97523C58.8301 3.23405 58.416 2.39104 57.6634 2.15332Z" fill="var(--fill-0, #267275)"/>
</g>
</svg>
