<svg preserveAspectRatio="none" width="100%" height="100%" overflow="visible" style="display: block;" viewBox="0 0 61 68" fill="none" xmlns="http://www.w3.org/2000/svg">
<g id="tailor builds-icon">
<rect id="Rectangle 711" x="1" y="1" width="59" height="45" rx="1" stroke="var(--stroke-0, black)" stroke-width="2"/>
<line id="Line 129" x1="1" y1="13" x2="60" y2="13" stroke="var(--stroke-0, black)" stroke-width="2"/>
<line id="Line 130" x1="5" y1="7" x2="32" y2="7" stroke="var(--stroke-0, black)" stroke-width="2"/>
<circle id="Ellipse 99" cx="46" cy="7" r="2" stroke="var(--stroke-0, black)" stroke-width="2"/>
<circle id="Ellipse 101" cx="39" cy="7" r="2" stroke="var(--stroke-0, black)" stroke-width="2"/>
<circle id="Ellipse 100" cx="53" cy="7" r="2" stroke="var(--stroke-0, black)" stroke-width="2"/>
<g id="general-settings-2 1" clip-path="url(#clip0_0_136)">
<path id="Vector" d="M46.3699 44.996C46.3716 44.417 46.3355 43.8384 46.2619 43.264C46.2292 42.9106 46.2955 42.555 46.4534 42.2371C46.6113 41.9192 46.8545 41.6515 47.1559 41.464L49.3819 40.21C49.5217 40.1329 49.6447 40.0285 49.7435 39.9031C49.8424 39.7777 49.9151 39.6338 49.9574 39.4798C49.9997 39.3258 50.0108 39.1649 49.9899 39.0066C49.969 38.8483 49.9167 38.6958 49.8359 38.558L45.6139 31.414C45.4443 31.1353 45.173 30.9334 44.8573 30.851C44.5416 30.7685 44.2062 30.8119 43.9219 30.972L41.6979 32.228C41.0399 32.554 40.2579 32.5 39.6519 32.088C38.7067 31.3952 37.6821 30.8178 36.5999 30.368C36.2758 30.2222 35.9979 29.9904 35.7962 29.6977C35.5945 29.4051 35.4769 29.0628 35.4559 28.708V26.208C35.4512 25.8843 35.3186 25.5755 35.087 25.3492C34.8554 25.1229 34.5437 24.9974 34.2199 25H25.7739C25.4508 24.9979 25.1399 25.1234 24.9089 25.3492C24.6778 25.575 24.5452 25.883 24.5399 26.206V28.72C24.5203 29.0764 24.4029 29.4205 24.2008 29.7147C23.9987 30.0089 23.7196 30.2418 23.3939 30.388C22.313 30.8366 21.2892 31.412 20.3439 32.102C20.0459 32.3055 19.699 32.4257 19.339 32.4503C18.9789 32.4749 18.6189 32.403 18.2959 32.242L16.0719 30.988C15.7879 30.8288 15.4531 30.7861 15.1382 30.8689C14.8233 30.9518 14.5529 31.1537 14.3839 31.432L10.1639 38.574C10.0834 38.7117 10.0311 38.8642 10.0103 39.0223C9.98943 39.1805 10.0004 39.3412 10.0425 39.4951C10.0846 39.649 10.157 39.7929 10.2555 39.9184C10.3539 40.0439 10.4765 40.1485 10.6159 40.226L12.8379 41.478C13.4539 41.86 13.8019 42.558 13.7339 43.278C13.5905 44.4222 13.5905 45.5799 13.7339 46.724C13.7669 47.0773 13.7009 47.4327 13.5434 47.7506C13.3858 48.0685 13.143 48.3363 12.8419 48.524L10.6159 49.776C10.4766 49.8534 10.354 49.9578 10.2556 50.0831C10.1571 50.2084 10.0847 50.3522 10.0426 50.5059C10.0005 50.6596 9.98955 50.8202 10.0104 50.9782C10.0312 51.1362 10.0834 51.2885 10.1639 51.426L14.3839 58.572C14.5533 58.8505 14.8239 59.0526 15.139 59.1357C15.4542 59.2189 15.7892 59.1767 16.0739 59.018L18.2959 57.762C18.9539 57.434 19.7359 57.486 20.3419 57.9C21.2879 58.59 22.3119 59.164 23.3919 59.612C23.7179 59.7579 23.9975 59.9908 24.2 60.285C24.4025 60.5792 24.5201 60.9234 24.5399 61.28V63.79C24.5447 64.1133 24.6767 64.4216 24.9073 64.6482C25.138 64.8747 25.4487 65.0011 25.7719 65H34.2179C34.5414 65.0027 34.8528 64.8775 35.0843 64.6516C35.3158 64.4257 35.4487 64.1175 35.4539 63.794V61.27C35.4736 60.9149 35.5902 60.572 35.7912 60.2786C35.9922 59.9852 36.2699 59.7526 36.5939 59.606C37.6756 59.1581 38.6996 58.582 39.6439 57.89C39.9422 57.6862 40.2895 57.5658 40.6499 57.5412C41.0103 57.5166 41.3707 57.5887 41.6939 57.75L43.9199 59.01C44.2044 59.1697 44.5398 59.2125 44.8552 59.1292C45.1707 59.046 45.4413 58.8433 45.6099 58.564L49.8259 51.42C49.9068 51.2825 49.9594 51.1302 49.9806 50.9721C50.0017 50.8139 49.991 50.6532 49.9491 50.4992C49.9071 50.3453 49.8348 50.2013 49.7364 50.0757C49.638 49.9501 49.5154 49.8455 49.3759 49.768L47.1519 48.514C46.8505 48.3266 46.6073 48.0589 46.4494 47.741C46.2915 47.4231 46.2252 47.0675 46.2579 46.714C46.3339 46.146 46.3699 45.57 46.3699 44.994V44.996ZM29.9859 51.668C29.1007 51.6814 28.2217 51.5184 27.4002 51.1884C26.5787 50.8585 25.8311 50.3682 25.201 49.7463C24.571 49.1244 24.0711 48.3832 23.7305 47.5661C23.3899 46.7489 23.2155 45.8721 23.2173 44.9868C23.2192 44.1015 23.3973 43.2254 23.7413 42.4097C24.0853 41.594 24.5884 40.8549 25.221 40.2357C25.8537 39.6164 26.6033 39.1293 27.4262 38.8028C28.2491 38.4763 29.1288 38.317 30.0139 38.334C31.7622 38.3678 33.4273 39.0869 34.6505 40.3365C35.8736 41.5861 36.557 43.2662 36.5533 45.0148C36.5496 46.7634 35.8592 48.4406 34.6308 49.6851C33.4024 50.9295 31.7343 51.6417 29.9859 51.668Z" stroke="var(--stroke-0, #267275)" stroke-width="2"/>
<circle id="Ellipse 99_2" cx="30" cy="45" r="12" fill="var(--fill-0, #EEEEEE)" stroke="var(--stroke-0, #267275)" stroke-width="2"/>
<rect id="Rectangle 718" x="53" y="56" width="11" height="8" fill="var(--fill-0, #EEEEEE)"/>
</g>
</g>
<defs>
<clipPath id="clip0_0_136">
<rect width="48" height="48" fill="white" transform="translate(6 20)"/>
</clipPath>
</defs>
</svg>
