<svg width="20" height="20" viewBox="0 0 20 20" fill="none" xmlns="http://www.w3.org/2000/svg">
<path d="M14.1641 7.08398C14.8544 7.08398 15.4141 6.52434 15.4141 5.83398C15.4141 5.14363 14.8544 4.58398 14.1641 4.58398C13.4737 4.58398 12.9141 5.14363 12.9141 5.83398C12.9141 6.52434 13.4737 7.08398 14.1641 7.08398Z" fill="white"/>
<path d="M13.3333 2.5C15.6333 2.5 17.5 4.36667 17.5 6.66667V13.3333C17.5 15.6333 15.6333 17.5 13.3333 17.5H6.66667C4.36667 17.5 2.5 15.6333 2.5 13.3333V6.66667C2.5 4.36667 4.36667 2.5 6.66667 2.5H10H13.3333Z" stroke="white" stroke-width="2" stroke-linecap="round" stroke-linejoin="round"/>
<path d="M9.9974 6.66602C11.8391 6.66602 13.3307 8.15768 13.3307 9.99935C13.3307 11.841 11.8391 13.3327 9.9974 13.3327C8.15573 13.3327 6.66406 11.841 6.66406 9.99935C6.66406 8.15768 8.15573 6.66602 9.9974 6.66602Z" stroke="white" stroke-width="2" stroke-linecap="round" stroke-linejoin="round"/>
</svg>
