<svg width="123" height="123" viewBox="0 0 123 123" fill="none" xmlns="http://www.w3.org/2000/svg">
<g opacity="0.1">
<path d="M74.2613 107.302L101.839 101.326C101.839 101.326 91.8913 33.9941 91.8093 33.5482C91.7273 33.1075 91.3685 32.8102 90.9995 32.8102C90.6305 32.8102 83.6246 32.2926 83.6246 32.2926C83.6246 32.2926 78.761 27.429 78.1716 26.9114C78.0333 26.7627 77.8795 26.691 77.7309 26.6141L74.2613 107.302ZM76.547 26.4706C76.465 26.4706 76.3266 26.5424 76.2549 26.5424C76.1729 26.5424 75.1428 26.8447 73.5233 27.3521C71.8935 22.6422 69.0184 18.2911 63.9344 18.2911H63.4936C62.0125 16.441 60.2495 15.6312 58.6966 15.6312C46.8271 15.6312 41.1384 30.4527 39.3754 37.9711C34.8039 39.3805 31.4931 40.4106 31.1088 40.5592C28.5258 41.369 28.4591 41.4407 28.167 43.8802C27.8749 45.6432 21.1611 97.6364 21.1611 97.6364L73.0108 107.369L76.547 26.4706ZM63.0426 30.0786V30.6014C60.1778 31.488 57.0054 32.4463 53.9048 33.4047C55.678 26.6243 58.9888 23.2982 61.8639 22.0426C62.6121 23.9645 63.0426 26.5423 63.0426 30.0786ZM58.3276 18.8036C58.8401 18.8036 59.3578 18.9471 59.8805 19.3264C56.129 21.0894 51.9931 25.5891 50.2916 34.5886C47.8905 35.3567 45.4798 36.0947 43.0603 36.8026C45.0539 29.9402 49.8509 18.8036 58.3276 18.8036ZM60.3879 58.8401C60.3879 58.8401 57.2924 57.2257 53.6126 57.2257C48.0776 57.2257 47.8573 60.6902 47.8573 61.5769C47.8573 66.297 60.2495 68.1369 60.2495 79.2735C60.2495 88.0475 54.7145 93.6542 47.1961 93.6542C38.1966 93.6542 33.6251 88.0475 33.6251 88.0475L36.0595 80.0832C36.0595 80.0832 40.7848 84.1422 44.7566 84.1422C45.2337 84.1615 45.7097 84.0844 46.1563 83.9156C46.6029 83.7467 47.0108 83.4895 47.3558 83.1594C47.7007 82.8293 47.9755 82.4331 48.1638 81.9943C48.3522 81.5556 48.4501 81.0834 48.4518 80.606C48.4518 74.4098 38.2735 74.1075 38.2735 63.9395C38.2735 55.3858 44.3979 47.0526 56.8619 47.0526C61.6589 47.0526 64.0113 48.4466 64.0113 48.4466L60.3879 58.8401ZM65.1131 21.525C67.7679 21.8325 69.4694 24.846 70.5661 28.2439C69.2439 28.6897 67.7628 29.1305 66.1433 29.643V28.6846C66.1433 25.8095 65.7743 23.4469 65.1131 21.525Z" fill="black" fill-opacity="0.6"/>
</g>
</svg>
