<svg width="652" height="401" viewBox="0 0 652 401" fill="none" xmlns="http://www.w3.org/2000/svg">
<g opacity="0.7">
<path d="M638.656 256.877H622.044C607.903 256.877 594.986 248.161 590.371 234.802C586.662 224.066 582.315 213.627 577.375 203.528C571.195 190.886 574.107 175.665 584.054 165.719L595.964 153.809C601.18 148.593 601.18 140.138 595.964 134.922L517.086 56.0437C514.478 53.4357 511.058 52.1316 507.646 52.1316C504.227 52.1316 500.807 53.4357 498.199 56.0437L486.289 67.9537C479.863 74.3796 471.235 77.8715 462.527 77.8715C457.753 77.8715 452.957 76.821 448.48 74.6332C438.388 69.6924 427.949 65.3457 417.213 61.6365C403.846 57.0217 395.138 44.1047 395.138 29.9634V13.3517C395.131 5.97674 389.154 0 381.78 0H270.228C262.853 0 256.877 5.97674 256.877 13.3517V29.9634C256.877 44.1047 248.161 57.0217 234.802 61.6365C224.066 65.3457 213.627 69.6924 203.528 74.6332C199.051 76.821 194.255 77.8715 189.481 77.8715C180.773 77.8715 172.145 74.3796 165.719 67.9537L153.809 56.0437C151.201 53.4357 147.781 52.1316 144.369 52.1316C140.957 52.1316 137.537 53.4357 134.929 56.0437L56.0437 134.922C50.8276 140.138 50.8276 148.593 56.0437 153.809L67.9537 165.719C77.9004 175.665 80.8127 190.886 74.6332 203.528C69.6924 213.619 65.3457 224.059 61.6365 234.795C57.0217 248.161 44.1047 256.869 29.9634 256.869H13.3517C5.97674 256.877 0 262.853 0 270.228V381.78C0 389.154 5.97674 395.131 13.3517 395.131H29.9634C44.1047 395.131 57.0217 403.846 61.6365 417.205C65.3457 427.942 69.6924 438.381 74.6332 448.48C80.8127 461.122 77.9004 476.342 67.9537 486.289L56.0437 498.199C50.8276 503.415 50.8276 511.87 56.0437 517.086L134.922 595.964C137.53 598.572 140.95 599.876 144.362 599.876C147.774 599.876 151.193 598.572 153.801 595.964L165.711 584.054C172.137 577.628 180.766 574.136 189.473 574.136C194.248 574.136 199.044 575.187 203.521 577.375C213.619 582.308 224.059 586.662 234.795 590.371C248.161 594.986 256.869 607.903 256.869 622.044V638.656C256.869 646.031 262.846 652.008 270.221 652.008H381.772C389.147 652.008 395.124 646.031 395.124 638.656V622.044C395.124 607.903 403.839 594.986 417.198 590.371C427.934 586.662 438.374 582.315 448.473 577.375C452.95 575.187 457.746 574.136 462.52 574.136C471.228 574.136 479.849 577.621 486.282 584.054L498.192 595.964C500.8 598.572 504.219 599.876 507.632 599.876C511.051 599.876 514.463 598.572 517.071 595.964L595.95 517.086C601.166 511.87 601.166 503.415 595.95 498.199L584.047 486.296C574.1 476.35 571.188 461.129 577.367 448.487C582.301 438.388 586.655 427.949 590.364 417.213C594.979 403.846 607.896 395.138 622.037 395.138H638.649C646.024 395.138 652.001 389.162 652.001 381.787V270.228C652.008 262.853 646.031 256.877 638.656 256.877ZM497.518 339.964C490.94 423.37 423.37 490.94 339.971 497.518C335.277 497.888 330.619 498.069 326.004 498.069C226.363 498.069 146.499 413.373 154.49 312.044C161.068 228.637 228.637 161.068 312.044 154.497C316.738 154.127 321.389 153.946 326.004 153.946C425.645 153.939 505.509 238.635 497.518 339.964Z" fill="#D6D6D6"/>
</g>
</svg>
