<svg width="296" height="155" viewBox="0 0 296 155" fill="none" xmlns="http://www.w3.org/2000/svg">
<mask id="mask0_725_1145" style="mask-type:alpha" maskUnits="userSpaceOnUse" x="43" y="-97" width="209" height="208">
<circle cx="147.657" cy="7.15894" r="103.736" transform="rotate(49.6522 147.657 7.15894)" fill="#FF8A8A"/>
</mask>
<g mask="url(#mask0_725_1145)">
<line y1="-1" x2="238.788" y2="-1" transform="matrix(-0.766941 0.641718 -0.65055 -0.759463 171.673 -149.377)" stroke="#C5C5C5" stroke-width="2"/>
<line y1="-1" x2="238.788" y2="-1" transform="matrix(-0.766941 0.641718 -0.65055 -0.759463 177.759 -142.277)" stroke="#C5C5C5" stroke-width="2"/>
<line y1="-1" x2="238.788" y2="-1" transform="matrix(-0.766941 0.641718 -0.65055 -0.759463 183.334 -135.768)" stroke="#C5C5C5" stroke-width="2"/>
<line y1="-1" x2="238.788" y2="-1" transform="matrix(-0.766941 0.641718 -0.65055 -0.759463 189.923 -128.076)" stroke="#C5C5C5" stroke-width="2"/>
<line y1="-1" x2="238.788" y2="-1" transform="matrix(-0.766941 0.641718 -0.65055 -0.759463 196.509 -120.384)" stroke="#C5C5C5" stroke-width="2"/>
<line y1="-1" x2="238.788" y2="-1" transform="matrix(-0.766941 0.641718 -0.65055 -0.759463 202.087 -113.875)" stroke="#C5C5C5" stroke-width="2"/>
<line y1="-1" x2="238.788" y2="-1" transform="matrix(-0.766941 0.641718 -0.65055 -0.759463 208.677 -106.183)" stroke="#C5C5C5" stroke-width="2"/>
<line y1="-1" x2="238.788" y2="-1" transform="matrix(-0.766941 0.641718 -0.65055 -0.759463 214.252 -99.6738)" stroke="#C5C5C5" stroke-width="2"/>
<line y1="-1" x2="238.788" y2="-1" transform="matrix(-0.766941 0.641718 -0.65055 -0.759463 220.841 -91.9817)" stroke="#C5C5C5" stroke-width="2"/>
<line y1="-1" x2="238.788" y2="-1" transform="matrix(-0.766941 0.641718 -0.65055 -0.759463 227.427 -84.2896)" stroke="#C5C5C5" stroke-width="2"/>
<line y1="-1" x2="238.788" y2="-1" transform="matrix(-0.766941 0.641718 -0.65055 -0.759463 233.005 -77.781)" stroke="#C5C5C5" stroke-width="2"/>
<line y1="-1" x2="238.788" y2="-1" transform="matrix(-0.766941 0.641718 -0.65055 -0.759463 239.595 -70.0889)" stroke="#C5C5C5" stroke-width="2"/>
<line y1="-1" x2="238.788" y2="-1" transform="matrix(-0.766941 0.641718 -0.65055 -0.759463 246.181 -62.3962)" stroke="#C5C5C5" stroke-width="2"/>
<line y1="-1" x2="238.788" y2="-1" transform="matrix(-0.766941 0.641718 -0.65055 -0.759463 251.759 -55.8877)" stroke="#C5C5C5" stroke-width="2"/>
<line y1="-1" x2="238.788" y2="-1" transform="matrix(-0.766941 0.641718 -0.65055 -0.759463 258.345 -48.1953)" stroke="#C5C5C5" stroke-width="2"/>
<line y1="-1" x2="238.788" y2="-1" transform="matrix(-0.766941 0.641718 -0.65055 -0.759463 263.923 -41.687)" stroke="#C5C5C5" stroke-width="2"/>
<line y1="-1" x2="238.788" y2="-1" transform="matrix(-0.766941 0.641718 -0.65055 -0.759463 270.509 -33.9941)" stroke="#C5C5C5" stroke-width="2"/>
<line y1="-1" x2="238.788" y2="-1" transform="matrix(-0.766941 0.641718 -0.65055 -0.759463 277.099 -26.3022)" stroke="#C5C5C5" stroke-width="2"/>
<line y1="-1" x2="238.788" y2="-1" transform="matrix(-0.766941 0.641718 -0.65055 -0.759463 282.677 -19.7932)" stroke="#C5C5C5" stroke-width="2"/>
<line y1="-1" x2="238.788" y2="-1" transform="matrix(-0.766941 0.641718 -0.65055 -0.759463 288.759 -12.6934)" stroke="#C5C5C5" stroke-width="2"/>
<line y1="-1" x2="238.788" y2="-1" transform="matrix(-0.766941 0.641718 -0.65055 -0.759463 294.841 -5.59302)" stroke="#C5C5C5" stroke-width="2"/>
<line y1="-1" x2="238.788" y2="-1" transform="matrix(-0.766941 0.641718 -0.65055 -0.759463 301.427 2.09961)" stroke="#C5C5C5" stroke-width="2"/>
<line y1="-1" x2="238.788" y2="-1" transform="matrix(-0.766941 0.641718 -0.65055 -0.759463 308.017 9.79175)" stroke="#C5C5C5" stroke-width="2"/>
<line y1="-1" x2="238.788" y2="-1" transform="matrix(-0.766941 0.641718 -0.65055 -0.759463 314.099 16.8916)" stroke="#C5C5C5" stroke-width="2"/>
<line y1="-1" x2="238.788" y2="-1" transform="matrix(-0.766941 0.641718 -0.65055 -0.759463 320.181 23.9924)" stroke="#C5C5C5" stroke-width="2"/>
<line y1="-1" x2="238.788" y2="-1" transform="matrix(-0.766941 0.641718 -0.65055 -0.759463 325.759 30.501)" stroke="#C5C5C5" stroke-width="2"/>
<line y1="-1" x2="238.788" y2="-1" transform="matrix(-0.766941 0.641718 -0.65055 -0.759463 332.349 38.1936)" stroke="#C5C5C5" stroke-width="2"/>
<line y1="-1" x2="238.788" y2="-1" transform="matrix(-0.766941 0.641718 -0.65055 -0.759463 338.935 45.8857)" stroke="#C5C5C5" stroke-width="2"/>
<line y1="-1" x2="238.788" y2="-1" transform="matrix(-0.766941 0.641718 -0.65055 -0.759463 344.513 52.3948)" stroke="#C5C5C5" stroke-width="2"/>
<line y1="-1" x2="238.788" y2="-1" transform="matrix(-0.766941 0.641718 -0.65055 -0.759463 351.099 60.0864)" stroke="#C5C5C5" stroke-width="2"/>
<line y1="-1" x2="238.788" y2="-1" transform="matrix(-0.766941 0.641718 -0.65055 -0.759463 356.677 66.5955)" stroke="#C5C5C5" stroke-width="2"/>
<line y1="-1" x2="238.788" y2="-1" transform="matrix(-0.766941 0.641718 -0.65055 -0.759463 363.263 74.2876)" stroke="#C5C5C5" stroke-width="2"/>
<line y1="-1" x2="238.788" y2="-1" transform="matrix(-0.766941 0.641718 -0.65055 -0.759463 369.853 81.9802)" stroke="#C5C5C5" stroke-width="2"/>
<line y1="-1" x2="238.788" y2="-1" transform="matrix(-0.766941 0.641718 -0.65055 -0.759463 375.431 88.4888)" stroke="#C5C5C5" stroke-width="2"/>
<line y1="-1" x2="238.777" y2="-1" transform="matrix(-0.764922 0.644123 -0.64966 -0.760225 360.041 71.072)" stroke="#C5C5C5" stroke-width="2"/>
<line y1="-1" x2="238.777" y2="-1" transform="matrix(-0.764922 0.644123 -0.64966 -0.760225 365.377 77.3147)" stroke="#C5C5C5" stroke-width="2"/>
<line y1="-1" x2="238.777" y2="-1" transform="matrix(-0.764922 0.644123 -0.64966 -0.760225 370.712 83.5581)" stroke="#C5C5C5" stroke-width="2"/>
<line y1="-1" x2="238.777" y2="-1" transform="matrix(-0.764922 0.644123 -0.64966 -0.760225 375.228 88.8403)" stroke="#C5C5C5" stroke-width="2"/>
</g>
</svg>
