<svg width="158" height="79" viewBox="0 0 158 79" fill="none" xmlns="http://www.w3.org/2000/svg">
<path d="M4.11328 9.87516H15.6341M9.8737 15.6356V4.11475" stroke="#B5B5B5" stroke-linecap="round" stroke-linejoin="round"/>
<path d="M4.11328 29.6252H15.6341M9.8737 35.3856V23.8647" stroke="#B5B5B5" stroke-linecap="round" stroke-linejoin="round"/>
<path d="M4.11328 49.3752H15.6341M9.8737 55.1356V43.6147" stroke="#B5B5B5" stroke-linecap="round" stroke-linejoin="round"/>
<path d="M4.11328 69.1252H15.6341M9.8737 74.8856V63.3647" stroke="#B5B5B5" stroke-linecap="round" stroke-linejoin="round"/>
<path d="M23.8633 9.87516H35.3841M29.6237 15.6356V4.11475" stroke="#B5B5B5" stroke-linecap="round" stroke-linejoin="round"/>
<path d="M23.8633 29.6252H35.3841M29.6237 35.3856V23.8647" stroke="#B5B5B5" stroke-linecap="round" stroke-linejoin="round"/>
<path d="M23.8633 49.3752H35.3841M29.6237 55.1356V43.6147" stroke="#B5B5B5" stroke-linecap="round" stroke-linejoin="round"/>
<path d="M23.8633 69.1252H35.3841M29.6237 74.8856V63.3647" stroke="#B5B5B5" stroke-linecap="round" stroke-linejoin="round"/>
<path d="M43.6133 9.87516H55.1341M49.3737 15.6356V4.11475" stroke="#B5B5B5" stroke-linecap="round" stroke-linejoin="round"/>
<path d="M43.6133 29.6252H55.1341M49.3737 35.3856V23.8647" stroke="#B5B5B5" stroke-linecap="round" stroke-linejoin="round"/>
<path d="M43.6133 49.3752H55.1341M49.3737 55.1356V43.6147" stroke="#B5B5B5" stroke-linecap="round" stroke-linejoin="round"/>
<path d="M43.6133 69.1252H55.1341M49.3737 74.8856V63.3647" stroke="#B5B5B5" stroke-linecap="round" stroke-linejoin="round"/>
<path d="M63.3633 9.87516H74.8841M69.1237 15.6356V4.11475" stroke="#B5B5B5" stroke-linecap="round" stroke-linejoin="round"/>
<path d="M63.3633 29.6252H74.8841M69.1237 35.3856V23.8647" stroke="#B5B5B5" stroke-linecap="round" stroke-linejoin="round"/>
<path d="M63.3633 49.3752H74.8841M69.1237 55.1356V43.6147" stroke="#B5B5B5" stroke-linecap="round" stroke-linejoin="round"/>
<path d="M63.3633 69.1252H74.8841M69.1237 74.8856V63.3647" stroke="#B5B5B5" stroke-linecap="round" stroke-linejoin="round"/>
<path d="M83.1133 9.87516H94.6341M88.8737 15.6356V4.11475" stroke="#B5B5B5" stroke-linecap="round" stroke-linejoin="round"/>
<path d="M83.1133 29.6252H94.6341M88.8737 35.3856V23.8647" stroke="#B5B5B5" stroke-linecap="round" stroke-linejoin="round"/>
<path d="M83.1133 49.3752H94.6341M88.8737 55.1356V43.6147" stroke="#B5B5B5" stroke-linecap="round" stroke-linejoin="round"/>
<path d="M83.1133 69.1252H94.6341M88.8737 74.8856V63.3647" stroke="#B5B5B5" stroke-linecap="round" stroke-linejoin="round"/>
<path d="M102.863 9.87516H114.384M108.624 15.6356V4.11475" stroke="#B5B5B5" stroke-linecap="round" stroke-linejoin="round"/>
<path d="M102.863 29.6252H114.384M108.624 35.3856V23.8647" stroke="#B5B5B5" stroke-linecap="round" stroke-linejoin="round"/>
<path d="M102.863 49.3752H114.384M108.624 55.1356V43.6147" stroke="#B5B5B5" stroke-linecap="round" stroke-linejoin="round"/>
<path d="M102.863 69.1252H114.384M108.624 74.8856V63.3647" stroke="#B5B5B5" stroke-linecap="round" stroke-linejoin="round"/>
<path d="M122.613 9.87516H134.134M128.374 15.6356V4.11475" stroke="#B5B5B5" stroke-linecap="round" stroke-linejoin="round"/>
<path d="M122.613 29.6252H134.134M128.374 35.3856V23.8647" stroke="#B5B5B5" stroke-linecap="round" stroke-linejoin="round"/>
<path d="M122.613 49.3752H134.134M128.374 55.1356V43.6147" stroke="#B5B5B5" stroke-linecap="round" stroke-linejoin="round"/>
<path d="M122.613 69.1252H134.134M128.374 74.8856V63.3647" stroke="#B5B5B5" stroke-linecap="round" stroke-linejoin="round"/>
<path d="M142.363 9.87516H153.884M148.124 15.6356V4.11475" stroke="#B5B5B5" stroke-linecap="round" stroke-linejoin="round"/>
<path d="M142.363 29.6252H153.884M148.124 35.3856V23.8647" stroke="#B5B5B5" stroke-linecap="round" stroke-linejoin="round"/>
<path d="M142.363 49.3752H153.884M148.124 55.1356V43.6147" stroke="#B5B5B5" stroke-linecap="round" stroke-linejoin="round"/>
<path d="M142.363 69.1252H153.884M148.124 74.8856V63.3647" stroke="#B5B5B5" stroke-linecap="round" stroke-linejoin="round"/>
</svg>
