<svg width="132" height="91" viewBox="0 0 132 91" fill="none" xmlns="http://www.w3.org/2000/svg">
<path d="M131.487 42.4997C130.621 41.5026 118.536 26.2761 116.412 23.7003C114.288 21.1245 113.236 21.5815 111.937 21.7684C110.617 21.9554 95.336 24.552 93.5625 24.8428C91.7889 25.1544 90.6753 25.8607 91.7683 27.3979C92.7375 28.7689 102.781 43.1229 105.008 46.2804L65.0621 55.919L33.2621 2.42893C32.0041 0.538605 31.736 -0.126126 28.8488 0.019284C25.9617 0.143921 3.91617 1.9927 2.34885 2.13811C0.781536 2.26275 -0.950759 2.96903 0.616556 6.70814C2.18387 10.4472 27.2197 64.789 27.9208 66.3677C28.622 67.9464 30.4368 70.5223 34.685 69.4836C39.0364 68.4242 54.1321 64.4566 62.3811 62.2755C66.7325 70.2315 75.6208 86.3512 77.2706 88.657C79.4566 91.7521 80.9827 91.2328 84.3442 90.1941C86.9838 89.384 125.507 75.4247 127.239 74.7184C128.971 73.9913 130.044 73.4928 128.868 71.7271C128.002 70.4392 117.835 56.7291 112.515 49.5417C116.165 48.5654 129.136 45.0963 130.518 44.7016C132.147 44.2862 132.374 43.4968 131.487 42.4997ZM58.8547 57.4562C58.3804 57.56 36.0049 62.961 34.8088 63.231C33.6127 63.5011 33.6127 63.3764 33.4683 62.961C33.3239 62.5455 6.86519 7.55982 6.49399 6.87432C6.12278 6.18882 6.1434 5.64872 6.49399 5.64872C6.84457 5.64872 27.6321 3.77917 28.3539 3.73762C29.0963 3.69608 29.0138 3.86226 29.2819 4.31926C29.2819 4.31926 58.6072 55.2958 59.1021 56.189C59.6383 57.0822 59.329 57.3523 58.8547 57.4562ZM121.96 69.3798C122.31 69.9406 122.682 70.3145 121.547 70.7092C120.434 71.1247 83.6636 83.6092 82.9625 83.9207C82.2407 84.2323 81.6839 84.3362 80.7765 82.986C79.8691 81.6357 67.908 60.8006 67.908 60.8006L106.843 50.6011C107.813 50.2895 108.122 50.0818 108.741 51.0581C109.339 52.0552 121.609 68.8189 121.96 69.3798ZM124.455 41.5234C123.589 41.7104 109.277 45.2833 109.277 45.2833L97.5839 29.122C97.2539 28.6442 96.9858 28.1872 97.8107 28.0834C98.6356 27.9795 111.917 25.5491 112.515 25.4245C113.113 25.279 113.628 25.1129 114.371 26.1307C115.113 27.1486 125.218 40.0485 125.61 40.5471C125.981 41.0249 125.321 41.3157 124.455 41.5234Z" fill="black" fill-opacity="0.1"/>
</svg>
