<svg width="123" height="123" viewBox="0 0 123 123" fill="none" xmlns="http://www.w3.org/2000/svg">
<g opacity="0.1">
<path d="M62.2207 65.1756L54.341 88.166H54.317L48.215 105.727C48.6475 105.847 49.0559 105.943 49.4883 106.063H49.5604C53.3561 107.072 57.3439 107.625 61.452 107.625C63.4939 107.625 65.4879 107.505 67.4338 107.193C70.1244 106.856 72.7189 106.28 75.2414 105.487C75.866 105.295 76.4906 105.079 77.1152 104.862C76.4426 103.421 75.0012 100.226 74.9291 100.082L62.2207 65.1756ZM19.4109 43.3623C17.0086 48.7916 15.375 55.4701 15.375 61.5C15.375 63.0135 15.4471 64.527 15.5912 66.0164C17.2488 83.1211 28.2996 97.4871 43.4824 103.949C44.107 104.214 44.7557 104.478 45.4043 104.718L23.0625 43.3863C21.1406 43.3143 20.7803 43.4344 19.4109 43.3623Z" fill="black" fill-opacity="0.6"/>
<path d="M103.349 42.1371C102.316 39.9029 101.091 37.7648 99.7213 35.7469C99.3369 35.1703 98.9045 34.5938 98.4961 34.0172C93.3311 27.0984 86.2922 21.6691 78.1002 18.498C72.9592 16.4801 67.3377 15.375 61.476 15.375C46.9898 15.375 34.0412 22.1016 25.585 32.5998C24.0234 34.5217 22.6301 36.5877 21.3809 38.7498C24.7922 38.7738 29.0203 38.7738 29.5008 38.7738C33.849 38.7738 40.5516 38.2453 40.5516 38.2453C42.8098 38.1012 43.05 41.3924 40.8158 41.6566C40.8158 41.6566 38.5576 41.9209 36.0592 42.041L51.1699 86.9648L60.2508 59.7463L53.8125 42.065C51.5543 41.9449 49.4643 41.6807 49.4643 41.6807C47.2061 41.5605 47.4943 38.1252 49.7045 38.2693C49.7045 38.2693 56.5512 38.7979 60.6352 38.7979C64.9834 38.7979 71.6859 38.2693 71.6859 38.2693C73.9201 38.1252 74.2084 41.4164 71.9502 41.6807C71.9502 41.6807 69.716 41.9449 67.2176 42.065L82.1842 86.6525L86.3402 72.815C88.4303 67.4338 89.4873 62.9895 89.4873 59.434C89.4873 54.317 87.6375 50.7615 86.052 47.9988C83.9619 44.5635 81.992 41.6807 81.992 38.2934C81.992 34.4736 84.8748 30.9182 88.9588 30.9182H89.4873C95.7814 30.75 97.8475 36.9961 98.1117 41.2482V41.3924C98.2078 43.1221 98.1357 44.3953 98.1357 45.9088C98.1357 50.0889 97.343 54.8215 94.9887 60.7553L85.6195 87.8537L80.2623 103.637C80.6947 103.445 81.1031 103.253 81.5355 103.037C95.1568 96.4541 105.079 83.3373 107.169 67.7941C107.481 65.7522 107.625 63.6621 107.625 61.548C107.625 54.6053 106.088 48.0229 103.349 42.1371Z" fill="black" fill-opacity="0.6"/>
</g>
</svg>
