<svg width="100" height="89" viewBox="0 0 100 89" fill="none" xmlns="http://www.w3.org/2000/svg">
<path d="M50 35.5828C47.6363 35.5828 45.3693 36.5221 43.6979 38.194C42.0265 39.8659 41.0875 42.1335 41.0875 44.498C41.0875 46.8624 42.0265 49.1301 43.6979 50.802C45.3693 52.4739 47.6363 53.4132 50 53.4132C52.3637 53.4132 54.6307 52.4739 56.3021 50.802C57.9735 49.1301 58.9125 46.8624 58.9125 44.498C58.9125 42.1335 57.9735 39.8659 56.3021 38.194C54.6307 36.5221 52.3637 35.5828 50 35.5828ZM25.0333 62.2325L23.0667 61.7324C8.40833 58.0271 0 51.7377 0 44.4813C0 37.225 8.40833 30.9355 23.0667 27.2303L25.0333 26.7343L25.5875 28.6849C27.0724 33.8019 28.9718 38.7893 31.2667 43.5977L31.6875 44.4855L31.2667 45.3733C28.9679 50.18 27.0685 55.1678 25.5875 60.2861L25.0333 62.2325ZM22.1542 31.7858C11.0125 34.9159 4.175 39.7049 4.175 44.4813C4.175 49.2536 11.0125 54.0425 22.1542 57.1768C23.5168 52.8419 25.162 48.601 27.0792 44.4813C25.1598 40.3626 23.5145 36.1215 22.1542 31.7858ZM74.9667 62.2325L74.4125 60.2778C72.9291 55.161 71.0282 50.1747 68.7292 45.3691L68.3083 44.4813L68.7292 43.5935C71.0274 38.7861 72.9282 33.7985 74.4125 28.6807L74.9667 26.7301L76.9375 27.2261C91.5917 30.9314 100 37.2208 100 44.4813C100 51.7418 91.5917 58.0271 76.9375 61.7324L74.9667 62.2325ZM72.9208 44.4813C74.9208 48.8118 76.575 53.0672 77.8458 57.1768C88.9917 54.0425 95.825 49.2536 95.825 44.4813C95.825 39.7049 88.9875 34.9201 77.8458 31.7858C76.4851 36.1214 74.8398 40.3624 72.9208 44.4813ZM22.125 31.765L21.5708 29.8185C17.45 15.2891 18.7 4.87767 25 1.24323C31.1792 -2.32451 41.1 1.88926 51.4958 12.5633L52.9125 14.0179L51.4958 15.4725C47.8019 19.3137 44.4269 23.4495 41.4042 27.8388L40.8417 28.6432L39.8625 28.7265C34.5454 29.1458 29.2712 29.9961 24.0917 31.269L22.125 31.765ZM30.025 4.13161C28.9083 4.13161 27.9208 4.37335 27.0875 4.85266C22.9458 7.24088 22.2125 15.5434 25.0667 26.7468C29.5068 25.7587 34.0066 25.0612 38.5375 24.6587C41.1518 20.9404 44.0079 17.3983 47.0875 14.0554C40.5875 7.72436 34.4333 4.13161 30.025 4.13161ZM69.9792 88.9989C69.975 88.9989 69.975 88.9989 69.9792 88.9989C64.0417 88.9989 56.4167 84.5268 48.5042 76.3993L47.0875 74.9447L48.5042 73.4901C52.1971 69.6477 55.5708 65.5105 58.5917 61.1197L59.1542 60.3153L60.1292 60.2319C65.449 59.8149 70.7261 58.966 75.9083 57.6936L77.875 57.1977L78.4333 59.1483C82.5458 73.6693 81.3 84.085 75 87.7152C73.4697 88.5807 71.7369 89.0238 69.9792 88.9989ZM52.9125 74.9072C59.4125 81.2383 65.5667 84.831 69.975 84.831H69.9792C71.0917 84.831 72.0833 84.5893 72.9125 84.11C77.0542 81.7217 77.7917 73.4151 74.9333 62.2117C70.492 63.2011 65.9907 63.8987 61.4583 64.2998C58.8472 68.0207 55.9924 71.5642 52.9125 74.9072ZM77.875 31.765L75.9083 31.269C70.7267 29.9924 65.4494 29.1421 60.1292 28.7265L59.1542 28.6432L58.5917 27.8388C55.5724 23.4481 52.1986 19.3122 48.5042 15.4725L47.0875 14.0179L48.5042 12.5633C58.8958 1.89343 68.8125 -2.32035 75 1.24323C81.3 4.87767 82.55 15.2891 78.4333 29.8144L77.875 31.765ZM61.4583 24.6587C66.2167 25.0921 70.7375 25.7965 74.9333 26.7468C77.7917 15.5434 77.0542 7.24088 72.9125 4.85266C68.7958 2.47277 61.0583 6.11971 52.9125 14.0554C55.9906 17.3985 58.8454 20.9405 61.4583 24.6587ZM30.025 88.9989C28.2658 89.0245 26.5315 88.5814 25 87.7152C18.7 84.085 17.45 73.6735 21.5708 59.1483L22.1208 57.1977L24.0875 57.6936C28.9 58.9065 34.2083 59.7609 39.8583 60.2319L40.8375 60.3153L41.3958 61.1197C44.419 65.5099 47.794 69.647 51.4875 73.4901L52.9042 74.9447L51.4875 76.3993C43.5792 84.5268 35.9542 88.9989 30.025 88.9989ZM25.0667 62.2117C22.2083 73.4151 22.9458 81.7217 27.0875 84.11C31.2 86.4565 38.9333 82.8388 47.0875 74.9072C44.0092 71.5618 41.1531 68.0184 38.5375 64.2998C34.0064 63.899 29.5065 63.2015 25.0667 62.2117ZM50 64.8291C46.5708 64.8291 43.0458 64.6791 39.5167 64.3873L38.5375 64.304L37.975 63.4996C35.9788 60.6304 34.1022 57.6797 32.35 54.6552C30.603 51.6283 28.9822 48.5303 27.4917 45.3691L27.075 44.4813L27.4917 43.5935C28.982 40.4322 30.6028 37.3342 32.35 34.3074C34.075 31.3232 35.9708 28.3473 37.975 25.4631L38.5375 24.6587L39.5167 24.5753C46.4944 23.9835 53.5097 23.9835 60.4875 24.5753L61.4625 24.6587L62.0208 25.4631C66.0174 31.2026 69.5255 37.2673 72.5083 43.5935L72.9292 44.4813L72.5083 45.3691C69.5327 51.6991 66.0242 57.7644 62.0208 63.4996L61.4625 64.304L60.4875 64.3873C56.9583 64.6791 53.4292 64.8291 50 64.8291ZM40.8458 60.3111C47.0125 60.7737 52.9875 60.7737 59.1583 60.3111C62.6035 55.2731 65.6622 49.9814 68.3083 44.4813C65.6669 38.9779 62.6065 33.6857 59.1542 28.6515C53.0602 28.1889 46.9398 28.1889 40.8458 28.6515C37.392 33.6848 34.3315 38.9771 31.6917 44.4813C34.3407 49.9807 37.4007 55.2723 40.8458 60.3111Z" fill="black" fill-opacity="0.1"/>
</svg>
